<svg xmlns="http://www.w3.org/2000/svg" width="1200" height="630" viewBox="0 0 1200 630" role="img" aria-labelledby="title desc">
  <title id="title">Alert Construction — Your Building Clinic</title>
  <desc id="desc">Secure estimating, projects, schedules and site tools for Alert Construction.</desc>
  <defs>
    <linearGradient id="bg" x1="0" y1="0" x2="1" y2="1">
      <stop offset="0" stop-color="#050505"/>
      <stop offset="1" stop-color="#171512"/>
    </linearGradient>
    <pattern id="grid" width="48" height="48" patternUnits="userSpaceOnUse">
      <path d="M48 0H0V48" fill="none" stroke="#f5b400" stroke-opacity=".08"/>
    </pattern>
  </defs>
  <rect width="1200" height="630" fill="url(#bg)"/>
  <rect width="1200" height="630" fill="url(#grid)"/>
  <path d="M0 512 390 122h292L1200 416v214H0Z" fill="#0d0d0d" stroke="#f5b400" stroke-opacity=".24" stroke-width="2"/>
  <path d="M850 0h350v350L850 0Z" fill="#f5b400" fill-opacity=".07"/>
  <g transform="translate(76 76)">
    <path d="M0 100 62 0h74l64 100h-48L99 18 47 100Z" fill="#f5b400"/>
    <path d="M110 48c0-31 24-52 56-52 20 0 36 8 47 22l-28 23c-5-7-11-11-19-11-12 0-20 8-20 19s8 19 20 19c8 0 14-4 19-11l28 23c-11 14-27 22-47 22-32 0-56-22-56-54Z" fill="#f5b400"/>
  </g>
  <text x="76" y="250" fill="#f5b400" font-family="Arial,Helvetica,sans-serif" font-size="24" font-weight="800" letter-spacing="7">ALERT CONSTRUCTION</text>
  <text x="76" y="360" fill="#fff" font-family="Georgia,'Times New Roman',serif" font-size="82" letter-spacing="-4">Your Building Clinic</text>
  <rect x="76" y="404" width="112" height="4" fill="#f5b400"/>
  <text x="76" y="470" fill="#c9c9c9" font-family="Arial,Helvetica,sans-serif" font-size="29">Secure estimates • Projects • Schedules • Site tools</text>
  <g transform="translate(76 532)" fill="#fff" font-family="Arial,Helvetica,sans-serif" font-size="18" font-weight="700">
    <circle cx="8" cy="-6" r="6" fill="#38d281"/><text x="26" y="0">Protected company catalogue</text>
    <circle cx="344" cy="-6" r="6" fill="#f5b400"/><text x="362" y="0">Human verification required</text>
  </g>
</svg>
